<?xml version="1.0" standalone="no"?>
<!DOCTYPE svg PUBLIC "-//W3C//DTD SVG 20010904//EN"
 "http://www.w3.org/TR/2001/REC-SVG-20010904/DTD/svg10.dtd">
<svg version="1.0" xmlns="http://www.w3.org/2000/svg"
 width="682.000000pt" height="272.000000pt" viewBox="0 0 682.000000 272.000000"
 preserveAspectRatio="xMidYMid meet">
<metadata>
Created by potrace 1.16, written by Peter Selinger 2001-2019
</metadata>
<g transform="translate(0.000000,272.000000) scale(0.100000,-0.100000)"
fill="#000000" stroke="none">
<path d="M130 2495 l0 -225 261 0 c240 0 261 -1 255 -17 -17 -44 -646 -2009
-646 -2018 0 -6 228 -48 513 -94 281 -46 520 -86 530 -89 16 -4 17 9 17 165
l0 168 -262 49 c-145 27 -268 52 -274 55 -8 4 93 349 302 1041 172 569 310
1038 306 1041 -6 6 -961 150 -989 149 -10 0 -13 -52 -13 -225z"/>
<path d="M1981 2623 c-121 -395 -671 -2228 -671 -2237 0 -10 267 -85 316 -89
15 -2 31 40 104 273 l86 275 260 3 260 2 74 -417 c40 -230 74 -421 76 -425 3
-3 73 26 157 67 146 70 152 74 150 101 -1 16 -103 595 -225 1286 l-223 1258
-167 0 -167 0 -30 -97z m244 -1086 c37 -191 65 -350 63 -353 -3 -2 -88 -3
-190 -2 l-185 3 115 363 c64 199 119 357 123 350 3 -7 37 -170 74 -361z"/>
<path d="M3050 1416 l0 -1236 170 0 170 0 0 368 0 367 68 32 c244 113 471 335
531 516 48 146 55 522 12 682 -45 170 -141 316 -252 382 -103 61 -306 102
-586 119 l-113 7 0 -1237z m412 868 c147 -74 240 -251 241 -459 1 -157 -40
-271 -132 -369 -54 -56 -112 -97 -158 -111 l-23 -6 0 485 c0 328 3 486 10 486
6 0 34 -12 62 -26z"/>
<path d="M4320 1406 l0 -1236 165 0 165 0 1 368 0 367 87 42 c226 109 404 270
487 439 54 109 68 200 68 444 0 189 -2 212 -25 301 -55 204 -149 334 -296 408
-90 46 -287 81 -539 97 l-113 7 0 -1237z m407 869 c104 -52 200 -188 229 -324
43 -204 -13 -412 -141 -528 -46 -42 -131 -93 -155 -93 -7 0 -10 158 -10 485 0
392 3 485 13 485 7 0 36 -11 64 -25z"/>
<path d="M6500 2261 c0 -256 -4 -360 -15 -427 -41 -240 -123 -397 -223 -423
-128 -35 -228 96 -299 389 -24 99 -26 124 -30 438 l-5 332 -163 0 -162 0 -7
-52 c-9 -83 -7 -405 4 -519 39 -393 149 -702 300 -843 65 -61 116 -83 215 -91
129 -11 228 8 373 72 27 12 7 -490 -22 -545 -47 -91 -219 -144 -302 -93 -39
23 -80 76 -89 113 l-7 28 -174 0 -174 0 0 -24 c0 -34 47 -190 71 -238 54 -107
162 -181 309 -212 103 -22 269 -35 332 -25 155 25 288 158 360 361 l28 79 0
1010 0 1009 -160 0 -160 0 0 -339z"/>
</g>
</svg>
